<svg width="42" height="42" viewBox="0 0 42 42" fill="none" xmlns="http://www.w3.org/2000/svg">
<path d="M36.072 5.18042H6.61286C5.9044 5.18042 5.33203 5.75279 5.33203 6.46125V35.9204C5.33203 36.6288 5.9044 37.2012 6.61286 37.2012H36.072C36.7804 37.2012 37.3528 36.6288 37.3528 35.9204V6.46125C37.3528 5.75279 36.7804 5.18042 36.072 5.18042ZM32.3736 14.5265H29.8159C27.8106 14.5265 27.4224 15.4791 27.4224 16.88V19.966H32.2095L31.5851 24.7971H27.4224V37.2012H22.4311V24.8012H18.2564V19.966H22.4311V16.4037C22.4311 12.269 24.9568 10.0156 28.6472 10.0156C30.4163 10.0156 31.9333 10.1476 32.3776 10.2077V14.5265H32.3736Z" fill="#EF2779"/>
</svg>
