<svg width="42" height="42" viewBox="0 0 42 42" fill="none" xmlns="http://www.w3.org/2000/svg">
<path d="M36.0583 5.18042H6.59919C5.89073 5.18042 5.31836 5.75279 5.31836 6.46125V35.9204C5.31836 36.6288 5.89073 37.2012 6.59919 37.2012H36.0583C36.7668 37.2012 37.3391 36.6288 37.3391 35.9204V6.46125C37.3391 5.75279 36.7668 5.18042 36.0583 5.18042ZM14.8165 32.4661H10.0654V17.1842H14.8165V32.4661ZM12.443 15.0949C11.8983 15.0949 11.3659 14.9333 10.9131 14.6308C10.4602 14.3282 10.1072 13.8981 9.89882 13.3949C9.69039 12.8917 9.63585 12.338 9.74211 11.8038C9.84836 11.2696 10.1106 10.779 10.4958 10.3938C10.8809 10.0087 11.3716 9.74645 11.9057 9.64019C12.4399 9.53394 12.9936 9.58847 13.4968 9.7969C14 10.0053 14.4301 10.3583 14.7327 10.8111C15.0353 11.264 15.1968 11.7964 15.1968 12.3411C15.1928 13.8621 13.96 15.0949 12.443 15.0949ZM32.6041 32.4661H27.857V25.0333C27.857 23.2602 27.825 20.9827 25.3874 20.9827C22.9178 20.9827 22.5375 22.9119 22.5375 24.9052V32.4661H17.7945V17.1842H22.3494V19.2736H22.4135C23.0459 18.0728 24.5949 16.804 26.9084 16.804C31.7195 16.804 32.6041 19.97 32.6041 24.0847V32.4661Z" fill="#EF2779"/>
</svg>
