<svg width="27" height="33" viewBox="0 0 27 33" fill="none" xmlns="http://www.w3.org/2000/svg">
<g clip-path="url(#clip0)">
<path d="M13.8607 19.8642C17.3535 19.8642 20.194 17.0237 20.194 13.5308C20.194 10.038 17.3535 7.19751 13.8607 7.19751C10.3678 7.19751 7.52734 10.038 7.52734 13.5308C7.52734 17.0237 10.3678 19.8642 13.8607 19.8642ZM13.8607 10.3642C15.6071 10.3642 17.0273 11.7844 17.0273 13.5308C17.0273 15.2773 15.6071 16.6975 13.8607 16.6975C12.1143 16.6975 10.694 15.2773 10.694 13.5308C10.694 11.7844 12.1143 10.3642 13.8607 10.3642Z" fill="#EF2779"/>
<path d="M12.6098 32.2363C12.8778 32.4277 13.1988 32.5306 13.5281 32.5306C13.8574 32.5306 14.1785 32.4277 14.4465 32.2363C14.9278 31.8959 26.2407 23.7275 26.1948 13.5308C26.1948 6.54676 20.5122 0.86418 13.5281 0.86418C6.54405 0.86418 0.861468 6.54676 0.861468 13.5229C0.815551 23.7275 12.1285 31.8959 12.6098 32.2363ZM13.5281 4.03085C18.7674 4.03085 23.0281 8.2916 23.0281 13.5388C23.0614 20.5656 16.0805 26.8752 13.5281 28.9446C10.9774 26.8736 3.99488 20.5624 4.02813 13.5308C4.02813 8.2916 8.28888 4.03085 13.5281 4.03085Z" fill="#EF2779"/>
</g>
<defs>
<clipPath id="clip0">
<rect width="26" height="32" fill="white" transform="translate(0.861328 0.69751)"/>
</clipPath>
</defs>
</svg>
