<svg width="28" height="23" viewBox="0 0 28 23" fill="none" xmlns="http://www.w3.org/2000/svg">
<g clip-path="url(#clip0)">
<path d="M26.1738 1.38501H1.79883C1.28027 1.38501 0.861328 1.80396 0.861328 2.32251V21.0725C0.861328 21.5911 1.28027 22.01 1.79883 22.01H26.1738C26.6924 22.01 27.1113 21.5911 27.1113 21.0725V2.32251C27.1113 1.80396 26.6924 1.38501 26.1738 1.38501ZM25.002 4.6311V19.9006H2.9707V4.6311L2.16211 4.00122L3.31348 2.52173L4.56738 3.49731H23.4082L24.6621 2.52173L25.8135 4.00122L25.002 4.6311ZM23.4082 3.49438L13.9863 10.8186L4.56445 3.49438L3.31055 2.5188L2.15918 3.99829L2.96777 4.62817L12.9756 12.4094C13.2634 12.633 13.6175 12.7544 13.9819 12.7544C14.3464 12.7544 14.7005 12.633 14.9883 12.4094L25.002 4.6311L25.8105 4.00122L24.6592 2.52173L23.4082 3.49438Z" fill="#EF2779"/>
</g>
<defs>
<clipPath id="clip0">
<rect width="27" height="22" fill="white" transform="translate(0.861328 0.69751)"/>
</clipPath>
</defs>
</svg>
