<svg width="42" height="42" viewBox="0 0 42 42" fill="none" xmlns="http://www.w3.org/2000/svg">
<path d="M38.0068 10.8762C36.782 11.4045 35.4491 11.7847 34.0762 11.9328C35.5016 11.086 36.569 9.74822 37.0782 8.17039C35.7406 8.96607 34.2754 9.52401 32.7474 9.81946C32.1087 9.13673 31.3363 8.59283 30.4783 8.22166C29.6203 7.85049 28.695 7.66 27.7601 7.66206C23.9777 7.66206 20.9357 10.7281 20.9357 14.4905C20.9357 15.0188 20.9997 15.5472 21.1038 16.0555C15.4401 15.7593 10.3889 13.0536 7.03068 8.91088C6.41879 9.95602 6.09813 11.146 6.10208 12.3571C6.10208 14.7266 7.30686 16.816 9.14405 18.0448C8.06137 18.0022 7.00404 17.7046 6.05805 17.1762V17.2603C6.05805 20.5784 8.40357 23.3282 11.5296 23.9606C10.9427 24.1131 10.3389 24.1911 9.73244 24.1928C9.28815 24.1928 8.86788 24.1488 8.4436 24.0887C9.30816 26.7945 11.8258 28.7598 14.8237 28.8238C12.4782 30.661 9.54031 31.7417 6.35024 31.7417C5.77787 31.7417 5.24953 31.7217 4.70117 31.6576C7.72713 33.5989 11.3175 34.7196 15.184 34.7196C27.7361 34.7196 34.6046 24.3209 34.6046 15.295C34.6046 14.9988 34.6046 14.7026 34.5846 14.4064C35.9134 13.4338 37.0782 12.229 38.0068 10.8762Z" fill="#EF2779"/>
</svg>
